<svg width="152" height="152" xmlns="http://www.w3.org/2000/svg" xmlns:xlink="http://www.w3.org/1999/xlink" overflow="hidden"><defs><clipPath id="clip0"><rect x="227" y="117" width="152" height="152"/></clipPath><clipPath id="clip1"><rect x="247" y="144" width="110" height="83"/></clipPath><clipPath id="clip2"><rect x="247" y="144" width="110" height="83"/></clipPath><clipPath id="clip3"><rect x="247" y="144" width="110" height="83"/></clipPath></defs><g clip-path="url(#clip0)" transform="translate(-227 -117)"><path d="M228.5 193C228.5 151.855 262.079 118.5 303.5 118.5 344.921 118.5 378.5 151.855 378.5 193 378.5 234.145 344.921 267.5 303.5 267.5 262.079 267.5 228.5 234.145 228.5 193Z" stroke="#2F528F" stroke-width="1.33333" stroke-miterlimit="8" fill="#ED7D31" fill-rule="evenodd"/><g clip-path="url(#clip1)"><g clip-path="url(#clip2)"><g clip-path="url(#clip3)"><path d="M0.922222 82.3852 47.0711 0.922222 71.5737 39.4167 97.2852 23.2907 108.515 82.3852 0.922222 82.3852Z" fill="#FFFFFF" transform="matrix(1.00798 0 0 1 247 144)"/><path d="M0.922222 82.3852 47.0711 0.922222M0.922222 82.3852 108.515 82.3852 97.2852 23.2907M0.922222 82.3852 31.908 74.0621 43.7748 69.2761 51.1366 65.1147M47.0711 0.922222 71.5737 39.4167M47.0711 0.922222 49.5983 24.2271 58.4984 39.4167 58.4984 60.953M97.2852 23.2907 71.5737 39.4167M97.2852 23.2907 88.2754 38.3764 83.0012 54.0865 62.2343 65.3228 51.1366 65.1147M51.1366 65.1147 58.4984 60.953M71.5737 39.4167 67.1787 50.9654 58.4984 60.953" stroke="#000000" stroke-width="0.922222" fill="none" transform="matrix(1.00798 0 0 1 247 144)"/></g></g></g></g></svg>